<svg width="25" height="12" viewBox="0 0 25 12" fill="none" xmlns="http://www.w3.org/2000/svg">
<path opacity="0.35" d="M19.8669 0C21.3804 0 22.6076 1.22721 22.6076 2.74065V8.90635C22.6074 10.4196 21.3803 11.646 19.8669 11.646H2.74065C1.22733 11.646 0.000180591 10.4196 0 8.90635V2.74065C0 1.22721 1.22721 0 2.74065 0H19.8669ZM2.74065 1.02762C1.84467 1.02762 1.10875 1.7156 1.03364 2.59212L1.02762 2.74065V8.90635C1.02779 9.80217 1.71572 10.5372 2.59212 10.6124L2.74065 10.6184H19.8669C20.763 10.6184 21.499 9.93055 21.5739 9.05387L21.58 8.90635V2.74065C21.58 1.84467 20.892 1.10875 20.0155 1.03364L19.8669 1.02762H2.74065ZM23.6352 3.76826C24.4621 4.11642 25 4.9263 25 5.8235C24.9999 6.72061 24.462 7.53064 23.6352 7.87873V3.76826Z" fill="#191919"/>
</svg>
