<svg width="328" height="12" viewBox="0 0 328 12" fill="none" xmlns="http://www.w3.org/2000/svg">
<path d="M3.66597 1.05939C5.10899 1.05939 6.25128 1.74353 6.91474 3.00865C7.37294 3.82247 7.61232 4.876 7.61236 6.12746C7.61236 9.45146 6.12135 11.4144 3.61126 11.4144C1.80563 11.4144 0.430889 10.3474 0.13679 8.72647H1.89454C2.12025 9.47198 2.77684 9.93706 3.62494 9.93706C5.06807 9.93706 5.92301 8.58968 5.92301 6.33265H5.80674C5.34165 7.26966 4.40464 7.80998 3.24876 7.80998C1.3679 7.80998 0 6.4284 0 4.52702C0.000190822 2.50272 1.5185 1.05939 3.66597 1.05939ZM19.7535 7.84417H21.0872V9.33519H19.7535V11.175H18.0641V9.33519H13.2423V7.7621C14.1314 6.12751 15.52 3.93173 17.2639 1.30561H19.7535V7.84417ZM26.7708 11.175H25.0062V3.08388H24.8899L22.4345 4.80744V3.11124L25.013 1.30561H26.7708V11.175ZM267.636 7.00682C268.188 7.00682 268.636 7.4548 268.636 8.00735V10.0084C268.636 10.5608 268.188 11.0089 267.636 11.0089H266.635C266.083 11.0089 265.635 10.5608 265.634 10.0084V8.00735C265.635 7.45482 266.082 7.00686 266.635 7.00682H267.636ZM272.305 5.00578C272.857 5.00596 273.305 5.45386 273.305 6.0063V10.0084C273.305 10.5607 272.857 11.0087 272.305 11.0089H271.304C270.752 11.0089 270.304 10.5608 270.304 10.0084V6.0063C270.304 5.45378 270.752 5.00581 271.304 5.00578H272.305ZM276.973 2.67058C277.526 2.67058 277.974 3.1187 277.974 3.6711V10.0084C277.974 10.5608 277.526 11.0089 276.973 11.0089H275.973C275.421 11.0087 274.973 10.5607 274.972 10.0084V3.6711C274.973 3.11883 275.421 2.67079 275.973 2.67058H276.973ZM281.643 0.336357C282.195 0.336357 282.643 0.78433 282.643 1.33688V10.0084C282.643 10.5608 282.195 11.0089 281.643 11.0089H280.642C280.09 11.0089 279.642 10.5608 279.642 10.0084V1.33688C279.642 0.78435 280.09 0.33639 280.642 0.336357H281.643ZM293.103 8.40501C294.379 7.32566 296.249 7.3256 297.525 8.40501C297.589 8.46306 297.626 8.5453 297.628 8.63169C297.629 8.71815 297.596 8.80169 297.534 8.86228L295.536 10.879C295.477 10.9382 295.397 10.9717 295.314 10.9718C295.231 10.9718 295.151 10.9381 295.092 10.879L293.093 8.86228C293.032 8.80166 292.998 8.71813 292.999 8.63169C293.001 8.5452 293.039 8.46302 293.103 8.40501ZM10.4302 7.96729C11.0799 7.96729 11.5244 8.42573 11.5246 9.04793C11.5246 9.66348 11.08 10.1286 10.4302 10.1286C9.78747 10.1284 9.33592 9.66339 9.33592 9.04793C9.3361 8.42581 9.7876 7.96742 10.4302 7.96729ZM326.666 2.00422C327.403 2.00422 328 2.60118 328 3.33792V8.00735C328 8.74399 327.403 9.34105 326.666 9.34105H311.325C310.589 9.34105 309.991 8.74399 309.991 8.00735V3.33792C309.991 2.60118 310.589 2.00422 311.325 2.00422H326.666ZM17.9957 2.74191C17.0519 4.13706 16.0258 5.75835 14.8769 7.78262V7.88521H18.0915V2.74191H17.9957ZM290.436 5.71416C293.186 3.15688 297.444 3.15687 300.194 5.71416C300.255 5.77404 300.291 5.85667 300.292 5.94279C300.293 6.02898 300.259 6.11218 300.198 6.17338L299.044 7.34098C298.925 7.46012 298.732 7.46271 298.61 7.34685C297.707 6.52928 296.532 6.07665 295.314 6.07665C294.097 6.07716 292.923 6.52981 292.02 7.34685C291.898 7.46269 291.705 7.46003 291.586 7.34098L290.432 6.17338C290.371 6.11228 290.337 6.02893 290.338 5.94279C290.339 5.85663 290.374 5.77403 290.436 5.71416ZM3.67965 2.52988C2.57862 2.52988 1.73059 3.37133 1.73039 4.4723C1.73039 5.60082 2.53745 6.40788 3.67281 6.40788C4.80133 6.40788 5.62891 5.60082 5.62891 4.49966C5.62872 3.38501 4.78069 2.52988 3.67965 2.52988ZM10.4302 2.8445C11.0799 2.8445 11.5244 3.30294 11.5246 3.92514C11.5246 4.5407 11.08 4.99894 10.4302 4.99894C9.78747 4.99881 9.33592 4.54061 9.33592 3.92514C9.3361 3.30303 9.7876 2.84463 10.4302 2.8445ZM287.77 3.03112C291.987 -1.01006 298.641 -1.01038 302.858 3.03112C302.919 3.09109 302.953 3.17332 302.954 3.25878C302.954 3.34434 302.92 3.42667 302.86 3.48741L301.703 4.65501C301.584 4.77452 301.391 4.77571 301.27 4.65794C299.664 3.13046 297.531 2.27895 295.314 2.27878C293.097 2.27877 290.964 3.13032 289.357 4.65794C289.236 4.77597 289.043 4.77468 288.924 4.65501L287.767 3.48741C287.707 3.42661 287.673 3.3444 287.673 3.25878C287.674 3.17323 287.709 3.09107 287.77 3.03112Z" fill="#191919"/>
</svg>
